<?xml version="1.0" encoding="UTF-8" standalone="no"?>
<svg
   xmlns:dc="http://purl.org/dc/elements/1.1/"
   xmlns:cc="http://creativecommons.org/ns#"
   xmlns:rdf="http://www.w3.org/1999/02/22-rdf-syntax-ns#"
   xmlns:svg="http://www.w3.org/2000/svg"
   xmlns="http://www.w3.org/2000/svg"
   id="svg8"
   version="1.1"
   viewBox="0 0 20 20"
   height="20mm"
   width="20mm">
  <defs
     id="defs2" />
  <metadata
     id="metadata5">
    <rdf:RDF>
      <cc:Work
         rdf:about="">
        <dc:format>image/svg+xml</dc:format>
        <dc:type
           rdf:resource="http://purl.org/dc/dcmitype/StillImage" />
        <dc:title></dc:title>
      </cc:Work>
    </rdf:RDF>
  </metadata>
  <g
     transform="translate(0,-277)"
     id="layer1">
    <path
       id="path815"
       transform="matrix(0.26458333,0,0,0.26458333,0,277)"
       d="M 37.794922 3.140625 A 34.65484 34.65484 0 0 0 3.140625 37.794922 A 34.65484 34.65484 0 0 0 37.794922 72.449219 A 34.65484 34.65484 0 0 0 72.449219 37.794922 A 34.65484 34.65484 0 0 0 37.794922 3.140625 z M 46.396484 16.259766 L 49.003906 16.259766 C 49.003906 16.259766 45.752923 19.323849 46.029297 21.236328 C 46.431435 24.019119 51.69172 24.195494 52.230469 26.955078 C 52.714082 29.432256 49.003906 33.804688 49.003906 33.804688 L 46.396484 33.804688 C 46.396484 33.804688 49.491767 29.847583 49.046875 27.662109 C 48.452431 24.741971 42.844083 24.460323 42.578125 21.492188 C 42.385445 19.341674 46.396484 16.259766 46.396484 16.259766 z M 36.171875 16.4375 L 38.779297 16.4375 C 38.779297 16.4375 35.528316 19.499631 35.804688 21.412109 C 36.206823 24.1949 41.465157 24.371275 42.003906 27.130859 C 42.487519 29.608037 38.779297 33.982422 38.779297 33.982422 L 36.171875 33.982422 C 36.171875 33.982422 39.267158 30.023365 38.822266 27.837891 C 38.227822 24.917752 32.619475 24.63806 32.353516 21.669922 C 32.16082 19.519408 36.171875 16.4375 36.171875 16.4375 z M 25.945312 16.679688 L 28.552734 16.679688 C 28.552734 16.679688 25.301753 19.743771 25.578125 21.65625 C 25.980264 24.439041 31.240547 24.615416 31.779297 27.375 C 32.262909 29.852178 28.552734 34.224609 28.552734 34.224609 L 25.945312 34.224609 C 25.945312 34.224609 29.042547 30.267505 28.597656 28.082031 C 28.003211 25.161893 22.392913 24.880248 22.126953 21.912109 C 21.934258 19.761596 25.945312 16.679688 25.945312 16.679688 z M 14 37.371094 L 34.75 37.494141 L 55.5 37.494141 C 55.5 39.549372 61.042863 42.838487 60.330078 44.728516 C 58.797924 48.791159 50.309054 51.131019 45.6875 53.339844 L 51.25 53.339844 L 51.25 56.339844 L 18 56.339844 L 18 53.339844 L 23.910156 53.339844 C 17.724397 49.941834 13.951736 43.892818 14 37.371094 z M 55.242188 41.958984 L 55.242188 46.15625 L 56.392578 46.15625 C 56.392578 46.15625 57.690638 44.996957 57.716797 44.212891 C 57.745862 43.341724 56.392578 41.958984 56.392578 41.958984 L 55.242188 41.958984 z "
       style="fill:#59eded;fill-opacity:1;stroke:none;stroke-width:0.91690928;stroke-opacity:1" />
  </g>
</svg>
