<?xml version="1.0" encoding="UTF-8" standalone="no"?>
<svg
   xmlns:dc="http://purl.org/dc/elements/1.1/"
   xmlns:cc="http://creativecommons.org/ns#"
   xmlns:rdf="http://www.w3.org/1999/02/22-rdf-syntax-ns#"
   xmlns:svg="http://www.w3.org/2000/svg"
   xmlns="http://www.w3.org/2000/svg"
   xmlns:sodipodi="http://sodipodi.sourceforge.net/DTD/sodipodi-0.dtd"
   xmlns:inkscape="http://www.inkscape.org/namespaces/inkscape"
   width="106.40296mm"
   height="63.493889mm"
   viewBox="0 0 106.40296 63.493889"
   version="1.1"
   id="svg821"
   sodipodi:docname="Logo.svg"
   inkscape:version="0.92.5 (2060ec1f9f, 2020-04-08)">
  <sodipodi:namedview
     pagecolor="#ffffff"
     bordercolor="#666666"
     borderopacity="1"
     objecttolerance="10"
     gridtolerance="10"
     guidetolerance="10"
     inkscape:pageopacity="0"
     inkscape:pageshadow="2"
     inkscape:window-width="1920"
     inkscape:window-height="1135"
     id="namedview11"
     showgrid="false"
     inkscape:zoom="2.7815544"
     inkscape:cx="190.47437"
     inkscape:cy="149.58216"
     inkscape:window-x="1920"
     inkscape:window-y="0"
     inkscape:window-maximized="1"
     inkscape:current-layer="svg821" />
  <defs
     id="defs815" />
  <metadata
     id="metadata818">
    <rdf:RDF>
      <cc:Work
         rdf:about="">
        <dc:format>image/svg+xml</dc:format>
        <dc:type
           rdf:resource="http://purl.org/dc/dcmitype/StillImage" />
        <dc:title />
      </cc:Work>
    </rdf:RDF>
  </metadata>
  <g
     id="layer1"
     transform="translate(-59.599653,-92.360937)">
    <g
       style="font-style:normal;font-weight:normal;font-size:40px;line-height:1.25;font-family:sans-serif;letter-spacing:0px;word-spacing:0px;fill:#000000;fill-opacity:1;stroke:none"
       id="flowRoot1373" />
  </g>
  <path
     id="rect855"
     style="fill:#59eded;fill-opacity:1;stroke:none;stroke-width:1.12147379;stroke-opacity:1"
     d="M 43.020287,10.737878 H 60.531439 L 80.043862,28.962954 60.531439,46.716686 H 43.020287 L 59.030479,28.49161 Z M 59.699199,0.00516764 c -25.791123,0 -46.698959,13.20806336 -46.698959,29.50104136 0.0026,4.686339 -6e-6,-5.3e-4 1.345654,14.2906 C -1.3905657,54.985247 0.01975909,63.283552 0.04960937,63.448839 0.58522393,62.610904 13.524454,46.272344 47.25448,57.908091 c 4.050911,0.7189 8.23704,1.088628 12.444719,1.099159 25.791104,0 46.698961,-13.208071 46.698961,-29.501041 0,-16.292978 -20.907857,-29.50104136 -46.698961,-29.50104136 z M 0.04960937,63.448839 c -0.0269187,0.04211 -0.03271241,0.05728 0.0020672,0.0155 0,0 -0.0018023,-0.01384 -0.0020672,-0.0155 z" />
</svg>
